<svg xmlns="http://www.w3.org/2000/svg" xmlns:xlink="http://www.w3.org/1999/xlink" width="500" zoomAndPan="magnify" viewBox="0 0 375 374.999991" height="500" preserveAspectRatio="xMidYMid meet" version="1.0"><defs><g/></defs><g fill="#000000" fill-opacity="1"><g transform="translate(40.371169, 230.901612)"><g><path d="M 59.832031 -72.304688 L 48.171875 -72.304688 C 47.539062 -72.304688 47.085938 -71.851562 47.085938 -71.488281 L 47.085938 -24.402344 L 13.738281 -72.03125 C 13.648438 -72.210938 13.105469 -72.304688 12.925781 -72.304688 L 0.902344 -72.304688 C 0.453125 -72.304688 0 -71.851562 0 -71.488281 L 0 -17.351562 L 13.828125 -17.351562 L 13.828125 -47.902344 L 47.085938 -0.269531 C 47.175781 -0.0898438 47.71875 0 47.902344 0 L 59.832031 0 C 60.464844 0 60.824219 -0.453125 60.824219 -0.8125 L 60.824219 -71.488281 C 60.824219 -71.851562 60.464844 -72.304688 59.832031 -72.304688 Z M 59.832031 -72.304688 "/></g></g></g><g fill="#000000" fill-opacity="1"><g transform="translate(104.264295, 230.901612)"><g><path d="M 29.464844 -12.382812 L 22.234375 -12.382812 L 22.234375 -72.304688 L 8.40625 -72.304688 L 8.40625 -12.382812 L 0.996094 -12.382812 C 0.453125 -12.382812 0 -12.019531 0 -11.570312 L 0 -0.8125 C 0 -0.453125 0.453125 0 0.996094 0 L 29.464844 0 C 30.097656 0 30.457031 -0.453125 30.457031 -0.8125 L 30.457031 -11.570312 C 30.457031 -12.019531 30.097656 -12.382812 29.464844 -12.382812 Z M 29.464844 -12.382812 "/></g></g></g><g fill="#000000" fill-opacity="1"><g transform="translate(136.256061, 230.901612)"><g><path d="M 49.347656 -1.175781 C 44.828125 -11.207031 39.949219 -21.148438 35.429688 -31.363281 C 42.660156 -33.980469 48.714844 -39.765625 48.714844 -50.792969 C 48.714844 -72.121094 28.378906 -72.304688 24.3125 -72.304688 L 0.902344 -72.304688 C 0.453125 -72.304688 0 -71.851562 0 -71.488281 L 0 -59.199219 L 24.3125 -59.199219 C 26.480469 -59.199219 34.976562 -58.746094 34.976562 -50.792969 C 34.976562 -42.839844 27.292969 -42.476562 24.3125 -42.476562 L 0 -42.476562 L 0 -0.8125 C 0 -0.453125 0.453125 0 0.902344 0 L 12.742188 0 C 13.285156 0 13.738281 -0.453125 13.738281 -0.8125 L 13.738281 -29.191406 L 21.511719 -29.191406 L 34.707031 -0.542969 C 34.796875 -0.269531 35.339844 0 35.609375 0 L 48.535156 0 C 49.257812 0 49.617188 -0.542969 49.347656 -1.175781 Z M 49.347656 -1.175781 "/></g></g></g><g fill="#000000" fill-opacity="1"><g transform="translate(187.033812, 231.699983)"><g><path d="M 56.765625 -1.085938 L 29.285156 -71.769531 C 29.015625 -72.492188 27.75 -72.492188 27.476562 -71.769531 L 0.0898438 -1.085938 C -0.179688 -0.542969 0.179688 0 0.996094 0 L 13.378906 0 C 13.738281 0 14.191406 -0.179688 14.28125 -0.542969 L 28.382812 -40.855469 L 42.664062 -0.542969 C 42.753906 -0.179688 43.207031 0 43.476562 0 L 55.949219 0 C 56.582031 0 57.035156 -0.542969 56.765625 -1.085938 Z M 56.765625 -1.085938 "/></g></g></g><g fill="#000000" fill-opacity="1"><g transform="translate(230.325454, 231.699983)"><g><path d="M 41.035156 -58.480469 L 33.445312 -47.90625 L 16.269531 -72.039062 C 16.089844 -72.222656 15.636719 -72.3125 15.367188 -72.3125 L 1.085938 -72.3125 C 0.0898438 -72.3125 -0.269531 -71.589844 0.179688 -70.957031 C 8.949219 -58.664062 17.898438 -46.371094 26.574219 -33.984375 L 26.574219 -0.8125 C 26.574219 -0.453125 26.9375 0 27.570312 0 L 39.410156 0 C 39.953125 0 40.402344 -0.453125 40.402344 -0.8125 L 40.402344 -33.984375 L 57.847656 -58.480469 Z M 41.035156 -58.480469 "/></g></g></g><g fill="#000000" fill-opacity="1"><g transform="translate(274.701692, 231.699983)"><g><path d="M 56.765625 -1.085938 L 29.285156 -71.769531 C 29.015625 -72.492188 27.75 -72.492188 27.476562 -71.769531 L 0.0898438 -1.085938 C -0.179688 -0.542969 0.179688 0 0.996094 0 L 13.378906 0 C 13.738281 0 14.191406 -0.179688 14.28125 -0.542969 L 28.382812 -40.855469 L 42.664062 -0.542969 C 42.753906 -0.179688 43.207031 0 43.476562 0 L 55.949219 0 C 56.582031 0 57.035156 -0.542969 56.765625 -1.085938 Z M 56.765625 -1.085938 "/></g></g></g></svg>
